<svg width="24" height="24" viewBox="0 0 24 24" fill="none" xmlns="http://www.w3.org/2000/svg">
    <path d="M7 2C7.55229 2 8 2.44772 8 3L8 5H16L16 3C16 2.44771 16.4477 2 17 2C17.5523 2 18 2.44772 18 3V5C19.8856 5 20.8284 5 21.4142 5.58579C22 6.17157 22 7.11438 22 9C22 9.4714 22 9.70711 21.8536 9.85355C21.7071 10 21.4714 10 21 10H3C2.5286 10 2.29289 10 2.14645 9.85355C2 9.70711 2 9.4714 2 9C2 7.11438 2 6.17157 2.58579 5.58579C3.17157 5 4.11438 5 6 5V3C6 2.44771 6.44772 2 7 2Z" fill="#828282"/>
    <path d="M2.58579 21.4142C2 20.8284 2 19.8856 2 18V13C2 12.5286 2 12.2929 2.14645 12.1464C2.29289 12 2.5286 12 3 12H21C21.4714 12 21.7071 12 21.8536 12.1464C22 12.2929 22 12.5286 22 13V18C22 19.8856 22 20.8284 21.4142 21.4142C20.8284 22 19.8856 22 18 22H6C4.11438 22 3.17157 22 2.58579 21.4142Z" fill="#828282"/>
</svg>