<svg width="20" height="20" viewBox="0 0 20 20" fill="none" xmlns="http://www.w3.org/2000/svg">
    <path fill-rule="evenodd" clip-rule="evenodd" d="M14.459 8.87405L15.8333 7.4997C16.0678 7.26519 16.1851 7.14794 16.2695 7.03574C16.8056 6.32353 16.8056 5.34253 16.2695 4.63032C16.1851 4.51812 16.0678 4.40087 15.8333 4.16636C15.5988 3.93186 15.4816 3.81461 15.3694 3.73016C14.6572 3.19411 13.6762 3.19411 12.964 3.73016C12.8518 3.81461 12.7345 3.93185 12.5 4.16634L12.5 4.16636L11.1064 5.55998C11.9033 6.94022 13.06 8.08801 14.459 8.87405ZM9.65179 7.01458L4.18971 12.4767C3.76465 12.9017 3.55212 13.1142 3.41239 13.3753C3.27265 13.6364 3.21371 13.9312 3.09582 14.5206L2.64709 16.7643C2.58057 17.0969 2.54731 17.2632 2.64191 17.3578C2.73652 17.4524 2.90283 17.4191 3.23544 17.3526L5.47908 16.9039C6.06854 16.786 6.36326 16.727 6.62436 16.5873C6.88546 16.4476 7.09799 16.235 7.52305 15.81L13.0006 10.3324C11.6528 9.48166 10.5106 8.34724 9.65179 7.01458Z" fill="#6D4EEA"/>
</svg>