<svg width="32" height="32" viewBox="0 0 32 32" fill="none" xmlns="http://www.w3.org/2000/svg">
    <path fill-rule="evenodd" clip-rule="evenodd" d="M10.0457 3.73493L18.4019 2.42182C21.6225 1.91572 23.2328 1.66268 24.283 2.5608C25.3333 3.45892 25.3333 5.08897 25.3333 8.34908V14.9993H16.7473L20.7809 9.95729L19.2191 8.7079L13.8858 15.3746L13.386 15.9993L13.8858 16.624L19.2191 23.2906L20.7809 22.0412L16.7473 16.9993H25.3333V23.6494C25.3333 26.9095 25.3333 28.5396 24.283 29.4377C23.2328 30.3358 21.6225 30.0828 18.4019 29.5767L10.0457 28.2636C8.43297 28.0102 7.62661 27.8834 7.14663 27.3222C6.66666 26.7609 6.66666 25.9446 6.66666 24.3121V7.68644C6.66666 6.05392 6.66666 5.23766 7.14663 4.67637C7.62661 4.11508 8.43297 3.98836 10.0457 3.73493Z" fill="#828282"/>
</svg>