<svg width="24" height="24" viewBox="0 0 24 24" fill="none" xmlns="http://www.w3.org/2000/svg">
    <path d="M4.4068 11.8727L6.88112 9.40327C7.82762 10.1108 9.00755 10.4342 10.1834 10.3083C11.3592 10.1825 12.4436 9.61677 13.2183 8.72507C13.9929 7.83336 14.4004 6.68187 14.3585 5.5024C14.3167 4.32293 13.8287 3.20307 12.9929 2.36824C12.157 1.53341 11.0352 1.04561 9.85342 1.00304C8.67163 0.960468 7.51756 1.36628 6.62354 2.13879C5.72951 2.9113 5.1619 3.99314 5.03498 5.16653C4.90806 6.33992 5.23126 7.51773 5.9395 8.46286L3.46452 10.9329L2.52224 9.99185C2.39719 9.86715 2.22763 9.79712 2.05086 9.79718C1.87408 9.79725 1.70458 9.86739 1.57962 9.99219C1.45467 10.117 1.3845 10.2862 1.38457 10.4626C1.38463 10.639 1.45491 10.8082 1.57995 10.9329L2.52224 11.874L1.20344 13.1895C1.13979 13.2509 1.08903 13.3242 1.0541 13.4054C1.01918 13.4865 1.00079 13.5738 1.00003 13.6621C0.999256 13.7504 1.01612 13.838 1.04962 13.9197C1.08313 14.0015 1.13261 14.0757 1.19518 14.1382C1.25775 14.2006 1.33216 14.25 1.41405 14.2834C1.49595 14.3169 1.5837 14.3337 1.67218 14.3329C1.76067 14.3322 1.84811 14.3138 1.92941 14.279C2.01072 14.2441 2.08425 14.1934 2.14572 14.1299L3.46452 12.8137L4.4068 13.7542C4.46827 13.8177 4.5418 13.8683 4.6231 13.9032C4.70441 13.9381 4.79185 13.9564 4.88034 13.9572C4.96882 13.9579 5.05657 13.9411 5.13847 13.9077C5.22036 13.8742 5.29477 13.8248 5.35734 13.7624C5.41991 13.7 5.46939 13.6257 5.5029 13.544C5.5364 13.4622 5.55326 13.3747 5.55249 13.2863C5.55173 13.198 5.53334 13.1108 5.49842 13.0296C5.46349 12.9485 5.41272 12.8751 5.34908 12.8137L4.4068 11.8727ZM9.67131 2.35352C10.3303 2.35352 10.9745 2.54855 11.5224 2.91394C12.0704 3.27934 12.4975 3.79869 12.7496 4.40632C13.0018 5.01394 13.0678 5.68256 12.9393 6.32762C12.8107 6.97267 12.4933 7.56519 12.0274 8.03025C11.5614 8.49531 10.9677 8.81202 10.3213 8.94033C9.675 9.06864 9.00506 9.00278 8.39622 8.7511C7.78738 8.49941 7.267 8.07319 6.90088 7.52634C6.53476 6.97949 6.33934 6.33657 6.33934 5.67887C6.33934 4.79694 6.69038 3.95112 7.31525 3.32749C7.94011 2.70387 8.78761 2.35352 9.67131 2.35352Z" fill="#828282"/>
    <path d="M20.3336 7.67408H17.0016C16.8249 7.67408 16.6554 7.74415 16.5304 7.86888C16.4055 7.9936 16.3352 8.16277 16.3352 8.33915C16.3352 8.51554 16.4055 8.6847 16.5304 8.80943C16.6554 8.93415 16.8249 9.00422 17.0016 9.00422H18.7249L15.1264 12.5956C14.1796 11.8885 12.9996 11.5656 11.8239 11.6919C10.6481 11.8182 9.56395 12.3843 8.78963 13.2763C8.0153 14.1683 7.6083 15.3199 7.65055 16.4993C7.69281 17.6787 8.18118 18.7984 9.01735 19.6329C9.85353 20.4674 10.9754 20.9548 12.1572 20.997C13.339 21.0392 14.4929 20.633 15.3867 19.8602C16.2804 19.0874 16.8477 18.0054 16.9742 16.832C17.1008 15.6586 16.7772 14.4809 16.0687 13.536L19.6672 9.94463V11.6645C19.6672 11.8409 19.7374 12.0101 19.8624 12.1348C19.9874 12.2595 20.1569 12.3296 20.3336 12.3296C20.5103 12.3296 20.6798 12.2595 20.8048 12.1348C20.9298 12.0101 21 11.8409 21 11.6645V8.33915C21 8.16277 20.9298 7.9936 20.8048 7.86888C20.6798 7.74415 20.5103 7.67408 20.3336 7.67408ZM12.3369 19.6453C11.6779 19.6453 11.0337 19.4503 10.4857 19.0849C9.9378 18.7195 9.51073 18.2002 9.25854 17.5926C9.00636 16.9849 8.94037 16.3163 9.06894 15.6713C9.1975 15.0262 9.51484 14.4337 9.98082 13.9686C10.4468 13.5036 11.0405 13.1868 11.6868 13.0585C12.3332 12.9302 13.0031 12.9961 13.612 13.2478C14.2208 13.4995 14.7412 13.9257 15.1073 14.4725C15.4734 15.0194 15.6689 15.6623 15.6689 16.32C15.6689 16.7567 15.5827 17.1891 15.4152 17.5926C15.2478 17.996 15.0023 18.3626 14.6929 18.6714C14.3835 18.9802 14.0162 19.2251 13.612 19.3922C13.2077 19.5593 12.7744 19.6453 12.3369 19.6453Z" fill="#828282"/>
</svg>