<svg width="32" height="32" viewBox="0 0 32 32" fill="none" xmlns="http://www.w3.org/2000/svg">
<path d="M28.2218 23.7777C28.2218 24.0724 28.1047 24.355 27.8964 24.5634C27.688 24.7718 27.4054 24.8888 27.1107 24.8888H13.7773C13.4827 24.8888 13.2 24.7718 12.9917 24.5634C12.7833 24.355 12.6662 24.0724 12.6662 23.7777C12.6662 22.0096 13.3686 20.3139 14.6189 19.0637C15.8691 17.8135 17.5648 17.1111 19.3329 17.1111H21.5551C23.3232 17.1111 25.0189 17.8135 26.2692 19.0637C27.5194 20.3139 28.2218 22.0096 28.2218 23.7777ZM20.444 7.11108C19.565 7.11108 18.7057 7.37175 17.9748 7.86011C17.2439 8.34847 16.6743 9.0426 16.3379 9.85471C16.0015 10.6668 15.9135 11.5605 16.085 12.4226C16.2565 13.2847 16.6798 14.0767 17.3013 14.6982C17.9229 15.3198 18.7148 15.7431 19.577 15.9146C20.4391 16.0861 21.3327 15.998 22.1448 15.6617C22.957 15.3253 23.6511 14.7556 24.1394 14.0247C24.6278 13.2938 24.8885 12.4346 24.8885 11.5555C24.8885 10.3768 24.4202 9.24632 23.5867 8.41283C22.7532 7.57934 21.6228 7.11108 20.444 7.11108ZM10.444 7.11108C9.56499 7.11108 8.7057 7.37175 7.97481 7.86011C7.24393 8.34847 6.67427 9.0426 6.33788 9.85471C6.00149 10.6668 5.91348 11.5605 6.08497 12.4226C6.25646 13.2847 6.67975 14.0767 7.30132 14.6982C7.92288 15.3198 8.71481 15.7431 9.57695 15.9146C10.4391 16.0861 11.3327 15.998 12.1448 15.6617C12.9569 15.3253 13.6511 14.7556 14.1394 14.0247C14.6278 13.2938 14.8885 12.4346 14.8885 11.5555C14.8885 10.3768 14.4202 9.24632 13.5867 8.41283C12.7532 7.57934 11.6228 7.11108 10.444 7.11108ZM10.444 23.7777C10.4424 22.6106 10.6723 21.4548 11.1205 20.3772C11.5687 19.2996 12.2263 18.3216 13.0551 17.5C12.3768 17.2439 11.6579 17.1121 10.9329 17.1111H9.95512C8.31758 17.114 6.74794 17.7658 5.59002 18.9237C4.4321 20.0817 3.78028 21.6513 3.77734 23.2888V23.7777C3.77734 24.0724 3.89441 24.355 4.10278 24.5634C4.31115 24.7718 4.59377 24.8888 4.88846 24.8888H10.644C10.5147 24.5325 10.447 24.1568 10.444 23.7777Z" fill="#6D4EEA"/>
</svg>
