<svg width="832" height="219" viewBox="0 0 832 219" fill="none" xmlns="http://www.w3.org/2000/svg">
<path d="M831.267 53.3334C831.354 53.3548 831.432 53.374 831.5 53.3909V207C831.5 213.351 826.351 218.5 820 218.5H12C5.64872 218.5 0.5 213.351 0.5 207V53.3909C0.568408 53.374 0.64601 53.3548 0.73274 53.3334C1.13856 53.2333 1.74425 53.0846 2.54313 52.8907C4.14089 52.5028 6.51143 51.9338 9.60141 51.2095C15.7814 49.7609 24.839 47.6912 36.3477 45.2075C59.365 40.2401 92.1857 33.6166 131.396 26.993C209.819 13.7454 313.789 0.5 416 0.5C518.211 0.5 622.181 13.7454 700.604 26.993C739.814 33.6166 772.635 40.2401 795.652 45.2075C807.161 47.6912 816.219 49.7609 822.399 51.2095C825.489 51.9338 827.859 52.5028 829.457 52.8907C830.256 53.0846 830.861 53.2333 831.267 53.3334Z" fill="white" stroke="#E5E5E5"/>
</svg>
