<svg width="32" height="32" viewBox="0 0 32 32" fill="none" xmlns="http://www.w3.org/2000/svg">
    <path fill-rule="evenodd" clip-rule="evenodd" d="M18.4327 2.92554C18.7184 3.18409 18.7616 3.6168 18.8482 4.48224C19.0135 6.13535 19.0961 6.9619 19.649 7.19088C20.2018 7.41987 20.8447 6.89386 22.1305 5.84183C22.8036 5.29108 23.1402 5.0157 23.525 5.03489C23.9099 5.05409 24.214 5.35822 24.8223 5.96647L26.0338 7.17801L26.0338 7.17802C26.6421 7.78627 26.9462 8.0904 26.9654 8.47523C26.9846 8.86007 26.7092 9.19664 26.1584 9.86979C25.1064 11.1556 24.5804 11.7985 24.8094 12.3513C25.0383 12.9042 25.8649 12.9868 27.5181 13.1521C28.3835 13.2387 28.8162 13.2819 29.0748 13.5676C29.3333 13.8533 29.3333 14.2834 29.3333 15.1436V16.857C29.3333 17.7172 29.3333 18.1473 29.0748 18.433C28.8162 18.7187 28.3836 18.762 27.5182 18.8485C25.8653 19.0138 25.0388 19.0964 24.8099 19.6493C24.5809 20.2021 25.1068 20.8449 26.1586 22.1304L26.1586 22.1304C26.7093 22.8035 26.9846 23.14 26.9654 23.5248C26.9462 23.9097 26.6421 24.2138 26.0339 24.822L26.0339 24.822L24.8223 26.0336C24.2141 26.6418 23.9099 26.946 23.5251 26.9652C23.1403 26.9844 22.8037 26.709 22.1305 26.1582C20.8447 25.1062 20.2018 24.5802 19.649 24.8092C19.0962 25.0382 19.0135 25.8648 18.8482 27.5182C18.7616 28.3838 18.7184 28.8166 18.4327 29.0751C18.147 29.3337 17.7169 29.3337 16.8567 29.3337H15.1433C14.2831 29.3337 13.853 29.3337 13.5673 29.0751C13.2816 28.8166 13.2383 28.3838 13.1518 27.5184C12.9865 25.8652 12.9038 25.0387 12.351 24.8097C11.7982 24.5807 11.1553 25.1067 9.86942 26.1588C9.19625 26.7096 8.85967 26.985 8.47483 26.9658C8.09 26.9466 7.78587 26.6424 7.17762 26.0342L5.96608 24.8226C5.35782 24.2144 5.05369 23.9103 5.0345 23.5254C5.01531 23.1406 5.29069 22.804 5.84145 22.1309C6.8935 20.845 7.41952 20.2021 7.19054 19.6493C6.96156 19.0965 6.135 19.0138 4.4819 18.8485C3.61647 18.762 3.18375 18.7187 2.9252 18.433C2.66666 18.1473 2.66666 17.7172 2.66666 16.857V15.1436C2.66666 14.2834 2.66666 13.8533 2.9252 13.5676C3.18375 13.2819 3.61652 13.2387 4.48206 13.1521C6.13539 12.9868 6.96206 12.9041 7.19104 12.3513C7.42002 11.7985 6.8939 11.1554 5.84166 9.86937C5.2908 9.1961 5.01537 8.85946 5.03456 8.47463C5.05375 8.08979 5.35788 7.78566 5.96614 7.17741L7.17768 5.96587C7.78593 5.35761 8.09006 5.05348 8.4749 5.03429C8.85973 5.0151 9.19631 5.29048 9.86948 5.84125C11.1553 6.89331 11.7983 7.41934 12.3511 7.19036C12.9039 6.96138 12.9865 6.13494 13.1518 4.48207C13.2383 3.61675 13.2816 3.18409 13.5673 2.92554C13.853 2.66699 14.2831 2.66699 15.1433 2.66699H16.8567C17.7169 2.66699 18.147 2.66699 18.4327 2.92554ZM16 21.3337C18.9455 21.3337 21.3333 18.9458 21.3333 16.0003C21.3333 13.0548 18.9455 10.667 16 10.667C13.0545 10.667 10.6667 13.0548 10.6667 16.0003C10.6667 18.9458 13.0545 21.3337 16 21.3337Z" fill="#828282"/>
</svg>
