<svg width="32" height="32" viewBox="0 0 32 32" fill="none" xmlns="http://www.w3.org/2000/svg">
    <path fill-rule="evenodd" clip-rule="evenodd" d="M3.54534 4.87868C2.66666 5.75736 2.66666 7.17157 2.66666 10V22C2.66666 24.8284 2.66666 26.2426 3.54534 27.1213C4.42402 28 5.83823 28 8.66665 28H23.3333C26.1618 28 27.576 28 28.4546 27.1213C29.3333 26.2426 29.3333 24.8284 29.3333 22V10C29.3333 7.17157 29.3333 5.75736 28.4546 4.87868C27.576 4 26.1618 4 23.3333 4H8.66666C5.83823 4 4.42402 4 3.54534 4.87868ZM21.3333 11C21.8856 11 22.3333 11.4477 22.3333 12V22.6667C22.3333 23.219 21.8856 23.6667 21.3333 23.6667C20.781 23.6667 20.3333 23.219 20.3333 22.6667V12C20.3333 11.4477 20.781 11 21.3333 11ZM11.6667 14.6667C11.6667 14.1144 11.2189 13.6667 10.6667 13.6667C10.1144 13.6667 9.66666 14.1144 9.66666 14.6667V22.6667C9.66666 23.219 10.1144 23.6667 10.6667 23.6667C11.2189 23.6667 11.6667 23.219 11.6667 22.6667L11.6667 14.6667ZM17 17.3333C17 16.781 16.5523 16.3333 16 16.3333C15.4477 16.3333 15 16.781 15 17.3333V22.6667C15 23.219 15.4477 23.6667 16 23.6667C16.5523 23.6667 17 23.219 17 22.6667V17.3333Z" fill="#828282"/>
</svg>