<svg width="16" height="16" viewBox="0 0 16 16" fill="none" xmlns="http://www.w3.org/2000/svg">
    <path d="M6 8.6665L10 8.6665" stroke="#27AE60" stroke-linecap="round"/>
    <path d="M6 6L8.66667 6" stroke="#27AE60" stroke-linecap="round"/>
    <path d="M6 11.3335L8.66667 11.3335" stroke="#27AE60" stroke-linecap="round"/>
    <path d="M12.6673 8.66667V9.33333C12.6673 10.8878 12.6673 11.6651 12.3862 12.2679C12.0882 12.9071 11.5744 13.4208 10.9352 13.7189C10.3324 14 9.55515 14 8.00065 14V14C6.44615 14 5.6689 14 5.06613 13.7189C4.4269 13.4208 3.91314 12.9071 3.61506 12.2679C3.33398 11.6651 3.33398 10.8878 3.33398 9.33333V6C3.33398 5.07003 3.33398 4.60504 3.43621 4.22354C3.71361 3.18827 4.52225 2.37962 5.55753 2.10222C5.93903 2 6.40401 2 7.33398 2V2" stroke="#27AE60"/>
    <path d="M12 2L12 6" stroke="#27AE60" stroke-linecap="round"/>
    <path d="M14 4L10 4" stroke="#27AE60" stroke-linecap="round"/>
</svg>
