<svg width="32" height="32" viewBox="0 0 32 32" fill="none" xmlns="http://www.w3.org/2000/svg">
    <path d="M28.2222 23.776C28.2222 24.0707 28.1052 24.3533 27.8968 24.5617C27.6884 24.7701 27.4058 24.8871 27.1111 24.8871H13.7778C13.4831 24.8871 13.2005 24.7701 12.9921 24.5617C12.7837 24.3533 12.6667 24.0707 12.6667 23.776C12.6667 22.0079 13.369 20.3122 14.6193 19.062C15.8695 17.8117 17.5652 17.1094 19.3333 17.1094H21.5556C23.3237 17.1094 25.0194 17.8117 26.2696 19.062C27.5199 20.3122 28.2222 22.0079 28.2222 23.776ZM20.4444 7.10938C19.5654 7.10938 18.7061 7.37004 17.9752 7.8584C17.2444 8.34676 16.6747 9.04089 16.3383 9.853C16.0019 10.6651 15.9139 11.5587 16.0854 12.4209C16.2569 13.283 16.6802 14.0749 17.3017 14.6965C17.9233 15.3181 18.7152 15.7414 19.5774 15.9129C20.4395 16.0843 21.3331 15.9963 22.1453 15.6599C22.9574 15.3236 23.6515 14.7539 24.1399 14.023C24.6282 13.2921 24.8889 12.4328 24.8889 11.5538C24.8889 10.3751 24.4206 9.24462 23.5871 8.41112C22.7536 7.57763 21.6232 7.10938 20.4444 7.10938ZM10.4444 7.10938C9.56541 7.10938 8.70612 7.37004 7.97524 7.8584C7.24435 8.34676 6.6747 9.04089 6.33831 9.853C6.00192 10.6651 5.9139 11.5587 6.08539 12.4209C6.25688 13.283 6.68018 14.0749 7.30174 14.6965C7.92331 15.3181 8.71523 15.7414 9.57737 15.9129C10.4395 16.0843 11.3331 15.9963 12.1453 15.6599C12.9574 15.3236 13.6515 14.7539 14.1399 14.023C14.6282 13.2921 14.8889 12.4328 14.8889 11.5538C14.8889 10.3751 14.4206 9.24462 13.5871 8.41112C12.7536 7.57763 11.6232 7.10938 10.4444 7.10938ZM10.4444 23.776C10.4428 22.6089 10.6727 21.4531 11.1209 20.3755C11.5691 19.2979 12.2267 18.3199 13.0556 17.4983C12.3773 17.2422 11.6584 17.1104 10.9333 17.1094H9.95555C8.31801 17.1123 6.74837 17.7641 5.59045 18.922C4.43252 20.08 3.78071 21.6496 3.77777 23.2871V23.776C3.77777 24.0707 3.89483 24.3533 4.10321 24.5617C4.31158 24.7701 4.5942 24.8871 4.88888 24.8871H10.6444C10.5151 24.5308 10.4474 24.1551 10.4444 23.776Z" fill="#828282"/>
</svg>