<svg width="24" height="24" viewBox="0 0 24 24" fill="none" xmlns="http://www.w3.org/2000/svg">
    <path fill-rule="evenodd" clip-rule="evenodd" d="M11.5 3.01341V8.48708C10.6697 8.44616 9.85426 8.30358 9.08687 8.06518C8.16572 7.77901 7.33614 7.36177 6.64315 6.84203C6.20439 6.51297 5.82715 6.14794 5.51701 5.75709C7.04632 4.16928 9.15346 3.14191 11.5 3.01341ZM12.5 3.01341V8.48708C13.3303 8.44616 14.1457 8.30358 14.9131 8.06518C15.8343 7.77901 16.6639 7.36177 17.3569 6.84203C17.7956 6.51297 18.1729 6.14794 18.483 5.75709C16.9537 4.16928 14.8465 3.1419 12.5 3.01341ZM19.1452 6.52675C18.8036 6.93217 18.4048 7.30608 17.9569 7.64203C17.1641 8.23659 16.2299 8.70326 15.2098 9.02016C14.3445 9.28897 13.4288 9.44653 12.5 9.48818V11.4994L20.9863 11.4994C20.8841 9.63382 20.2137 7.91959 19.1452 6.52675ZM20.9864 12.4994L12.5 12.4994V14.5106C13.4288 14.5523 14.3445 14.7098 15.2098 14.9786C16.2299 15.2955 17.1641 15.7622 17.9569 16.3567C18.4049 16.6928 18.8039 17.0668 19.1455 17.4724C20.214 16.0794 20.8843 14.3651 20.9864 12.4994ZM18.4833 18.2421C18.1731 17.8511 17.7958 17.4859 17.3569 17.1567C16.6639 16.637 15.8343 16.2198 14.9131 15.9336C14.1457 15.6952 13.3303 15.5526 12.5 15.5117V20.9861C14.8467 20.8576 16.954 19.8301 18.4833 18.2421ZM11.5 20.9861V15.5117C10.6697 15.5526 9.85426 15.6952 9.08687 15.9336C8.16572 16.2198 7.33614 16.637 6.64315 17.1567C6.20424 17.4859 5.82689 17.8511 5.51669 18.2421C7.04602 19.8301 9.1533 20.8576 11.5 20.9861ZM4.85446 17.4724C5.19613 17.0668 5.59508 16.6928 6.04314 16.3567C6.83589 15.7622 7.77013 15.2955 8.79019 14.9786C9.65548 14.7098 10.5712 14.5523 11.5 14.5106V12.4994L3.01364 12.4994C3.11572 14.3651 3.78603 16.0794 4.85446 17.4724ZM3.01368 11.4994L11.5 11.4994V9.48818C10.5712 9.44653 9.65548 9.28897 8.79019 9.02016C7.77013 8.70326 6.83589 8.23659 6.04314 7.64203C5.59521 7.30608 5.19636 6.93218 4.85476 6.52676C3.78629 7.91959 3.11591 9.63383 3.01368 11.4994Z" fill="#828282"/>
</svg>