<svg width="834" height="205" viewBox="0 0 834 205" fill="none" xmlns="http://www.w3.org/2000/svg">
    <path d="M5.5 203.085L3.5 203.585L2 203.885V203.085C1.66667 142.251 1.2 18.7845 2 11.5845C2.8 4.38447 9.33333 1.58447 12.5 1.08447H811.5H815.5L820.5 1.08455C820.5 0.917882 821.6 0.884549 826 2.08455C830.4 3.28455 832.5 8.9628 833 11.6519V201.085V204.085L831.5 203.585L827.5 202.585L810 198.585L798.5 196.085L791.5 194.585L784.5 193.085L772.5 190.585L764.5 189.085L759.5 188.085L749.5 186.085L739 184.085L730.5 182.585L722.5 181.085L717.5 180.085L711 179.085L708.5 178.585L699.5 177.085L690 175.585L684.5 174.585L671.5 172.585L661.5 171.085L651 169.585L640.5 168.085L633.5 167.085L625.5 166.085L608.5 163.585L602.5 163.085L597.5 162.585L585.5 161.085L575 160.085L567 159.085L555.5 158.085L546.5 157.085L540.5 156.585L532.5 156.085L526.5 155.585L508 154.085L499 153.585L490 153.085L479.5 152.585L466.5 152.085L455.5 151.585H454.5H452.5L433.5 151.085H426H419.5H411H399L379.5 151.585L364.5 152.085L354.5 152.585L343.5 153.085L328 154.085L321 154.585L315 155.085L307 155.585L300.5 156.085L294.5 156.585L284.5 157.585L279.5 158.085L267.5 159.085L258.5 160.085L249.5 161.085L232.5 163.085L220.5 164.585L208.5 166.085L197.5 167.585L183.5 169.585L176.5 170.585L166.5 172.085L160.5 173.085L147.5 175.085L141.5 176.085L135.5 177.085L130 178.085L123.5 179.085L118 180.085L110 181.585L104.5 182.585L96 184.085L90.5 185.085L88 185.585L85.5 186.085L83 186.585L72.5 188.585L65 190.085L60 191.085L55.5 192.085L50.5 193.085L43 194.585L36 196.085L29.5 197.585L25 198.585L20.5 199.585L11.5 201.585L9.5 202.085L7.5 202.585L5.5 203.085Z" fill="#27AE60"/>
    <path d="M1 204.085L2 203.885M2 203.885L3.5 203.585L5.5 203.085L7.5 202.585L9.5 202.085L11.5 201.585L20.5 199.585L25 198.585L29.5 197.585L36 196.085L43 194.585L50.5 193.085L55.5 192.085L60 191.085L65 190.085L72.5 188.585L83 186.585L85.5 186.085L88 185.585L90.5 185.085L96 184.085L104.5 182.585L110 181.585L118 180.085L123.5 179.085L130 178.085L135.5 177.085L141.5 176.085L147.5 175.085L160.5 173.085L166.5 172.085L176.5 170.585L183.5 169.585L197.5 167.585L208.5 166.085L220.5 164.585L232.5 163.085L249.5 161.085L258.5 160.085L267.5 159.085L279.5 158.085L284.5 157.585L294.5 156.585L300.5 156.085L307 155.585L315 155.085L321 154.585L328 154.085L343.5 153.085L354.5 152.585L364.5 152.085L379.5 151.585L399 151.085H411H419.5H426H433.5L452.5 151.585H454.5H455.5L466.5 152.085L479.5 152.585L490 153.085L499 153.585L508 154.085L526.5 155.585L532.5 156.085L540.5 156.585L546.5 157.085L555.5 158.085L567 159.085L575 160.085L585.5 161.085L597.5 162.585L602.5 163.085L608.5 163.585L625.5 166.085L633.5 167.085L640.5 168.085L651 169.585L661.5 171.085L671.5 172.585L684.5 174.585L690 175.585L699.5 177.085L708.5 178.585L711 179.085L717.5 180.085L722.5 181.085L730.5 182.585L739 184.085L749.5 186.085L759.5 188.085L764.5 189.085L772.5 190.585L784.5 193.085L791.5 194.585L798.5 196.085L810 198.585L827.5 202.585L831.5 203.585L833 204.085V201.085V11.6519C832.5 8.9628 830.4 3.28455 826 2.08455C821.6 0.884549 820.5 0.917882 820.5 1.08455L815.5 1.08447H811.5H12.5C9.33333 1.58447 2.8 4.38447 2 11.5845C1.2 18.7845 1.66667 142.251 2 203.085V203.885Z"/>
</svg>