<svg width="32" height="32" viewBox="0 0 32 32" fill="none" xmlns="http://www.w3.org/2000/svg">
    <path d="M22.9393 10.9393C23.5251 10.3536 24.4749 10.3536 25.0607 10.9393C25.6464 11.5251 25.6464 12.4749 25.0607 13.0607L22.9393 10.9393ZM16 20L17.0607 21.0607L16 22.1213L14.9393 21.0607L16 20ZM6.93934 13.0607C6.35355 12.4749 6.35355 11.5251 6.93934 10.9393C7.52513 10.3536 8.47487 10.3536 9.06066 10.9393L6.93934 13.0607ZM25.0607 13.0607L17.0607 21.0607L14.9393 18.9393L22.9393 10.9393L25.0607 13.0607ZM14.9393 21.0607L6.93934 13.0607L9.06066 10.9393L17.0607 18.9393L14.9393 21.0607Z" fill="#828282"/>
</svg>