<svg width="14" height="14" viewBox="0 0 14 14" fill="none" xmlns="http://www.w3.org/2000/svg">
<path d="M3 2C2.44772 2 2 2.44772 2 3V11C2 11.5523 2.44772 12 3 12H11C11.5523 12 12 11.5523 12 11V10.5C12 9.94771 12.4477 9.5 13 9.5C13.5523 9.5 14 9.94771 14 10.5V11C14 12.6569 12.6569 14 11 14H3C1.34315 14 0 12.6569 0 11V3C0 1.34315 1.34315 0 3 0H3.5C4.05228 0 4.5 0.447715 4.5 1C4.5 1.55228 4.05228 2 3.5 2H3Z" fill="#2F80ED"/>
<path d="M6.5 1C6.5 0.447715 6.94772 0 7.5 0H12C13.1046 0 14 0.895431 14 2V6.5C14 7.05228 13.5523 7.5 13 7.5C12.4477 7.5 12 7.05228 12 6.5V3.41421L7.20711 8.20711C6.81658 8.59763 6.18342 8.59763 5.79289 8.20711C5.40237 7.81658 5.40237 7.18342 5.79289 6.79289L10.5858 2H7.5C6.94772 2 6.5 1.55228 6.5 1Z" fill="#2F80ED"/>
</svg>
