<svg width="32" height="32" viewBox="0 0 32 32" fill="none" xmlns="http://www.w3.org/2000/svg">
    <path fill-rule="evenodd" clip-rule="evenodd" d="M14.8305 1.27785C15.558 0.875482 16.437 0.875482 17.1675 1.27785L30.5992 8.70716C31.4632 9.18478 32 10.0979 32 11.0873V11.9201H0V11.0873C0 10.0969 0.536829 9.18579 1.40278 8.70816L14.8305 1.27785ZM10.6252 8.05494C10.6583 8.18438 10.7737 8.27368 10.9072 8.27368H21.0838C21.2173 8.27368 21.3317 8.18438 21.3648 8.05494C21.3979 7.9255 21.3377 7.79104 21.2203 7.72682L17.1645 5.47816C16.436 5.07679 15.553 5.07679 14.8245 5.47816L10.7667 7.72682C10.6493 7.79204 10.5921 7.9265 10.6252 8.05494ZM9.51947 24.4075V15.6296H10.5319V14.4767C10.5319 13.7713 9.96098 13.1994 9.25457 13.1994H4.78635C4.08095 13.1994 3.51 13.7713 3.51 14.4767V15.6296H4.59068V24.4075H9.51947ZM29.7718 27.5803H27.6777V25.8263H4.52281V27.5803H2.49591V29.2671H0.944624V31.023H31.2579V29.2671H29.7718V27.5803ZM27.6793 15.6296V24.4075H22.8217V15.6306H21.742V14.4787C21.742 13.7733 22.312 13.2013 23.0174 13.2013H27.4836C28.188 13.2013 28.7589 13.7733 28.7589 14.4787V15.6296H27.6793ZM18.5643 24.4075V15.6296H19.6449V14.4767C19.6449 13.7713 19.074 13.1994 18.3696 13.1994H13.9014C13.196 13.1994 12.625 13.7713 12.625 14.4767V15.6296H13.6365V24.4075H18.5643Z" fill="#828282"/>
</svg>
