<svg width="32" height="32" viewBox="0 0 32 32" fill="none" xmlns="http://www.w3.org/2000/svg">
    <path d="M9.33332 2.66699C10.0697 2.66699 10.6667 3.26395 10.6667 4.00033L10.6667 6.66699H21.3333L21.3333 4.00033C21.3333 3.26395 21.9303 2.66699 22.6667 2.66699C23.403 2.66699 24 3.26395 24 4.00033V6.66699C26.5141 6.66699 27.7712 6.66699 28.5523 7.44804C29.3333 8.22909 29.3333 9.48617 29.3333 12.0003C29.3333 12.6289 29.3333 12.9431 29.1381 13.1384C28.9428 13.3337 28.6285 13.3337 28 13.3337H3.99999C3.37145 13.3337 3.05718 13.3337 2.86192 13.1384C2.66666 12.9431 2.66666 12.6289 2.66666 12.0003C2.66666 9.48617 2.66666 8.22909 3.44771 7.44804C4.22875 6.66699 5.48583 6.66699 7.99999 6.66699V4.00033C7.99999 3.26395 8.59694 2.66699 9.33332 2.66699Z" fill="#828282"/>
    <path d="M3.44771 28.5526C2.66666 27.7716 2.66666 26.5145 2.66666 24.0003V17.3337C2.66666 16.7051 2.66666 16.3909 2.86192 16.1956C3.05718 16.0003 3.37145 16.0003 3.99999 16.0003H28C28.6285 16.0003 28.9428 16.0003 29.1381 16.1956C29.3333 16.3909 29.3333 16.7051 29.3333 17.3337V24.0003C29.3333 26.5145 29.3333 27.7716 28.5523 28.5526C27.7712 29.3337 26.5141 29.3337 24 29.3337H7.99999C5.48583 29.3337 4.22875 29.3337 3.44771 28.5526Z" fill="#828282"/>
</svg>