<svg width="32" height="32" viewBox="0 0 32 32" fill="none" xmlns="http://www.w3.org/2000/svg">
<path fill-rule="evenodd" clip-rule="evenodd" d="M6.89511 4.22872C5.33301 5.79082 5.33301 8.30498 5.33301 13.3333V18.6666C5.33301 23.6949 5.33301 26.2091 6.89511 27.7712C8.4572 29.3333 10.9714 29.3333 15.9997 29.3333C17.7017 29.3333 19.1156 29.3333 20.3021 29.2727C18.1438 28.1691 16.6663 25.9238 16.6663 23.3333C16.6663 19.6514 19.6511 16.6666 23.333 16.6666C24.5473 16.6666 25.6858 16.9913 26.6663 17.5585V13.3333C26.6663 8.30498 26.6663 5.79082 25.1042 4.22872C23.5421 2.66663 21.028 2.66663 15.9997 2.66663C10.9714 2.66663 8.4572 2.66663 6.89511 4.22872ZM9.33301 7.99996C9.33301 7.26358 9.92996 6.66663 10.6663 6.66663H15.9997C16.7361 6.66663 17.333 7.26358 17.333 7.99996C17.333 8.73634 16.7361 9.33329 15.9997 9.33329H10.6663C9.92996 9.33329 9.33301 8.73634 9.33301 7.99996ZM9.33301 13.3333C9.33301 12.5969 9.92996 12 10.6663 12H18.6663C19.4027 12 19.9997 12.5969 19.9997 13.3333C19.9997 14.0697 19.4027 14.6666 18.6663 14.6666H10.6663C9.92996 14.6666 9.33301 14.0697 9.33301 13.3333ZM9.33301 18.6666C9.33301 17.9302 9.92996 17.3333 10.6663 17.3333H14.6663C15.4027 17.3333 15.9997 17.9302 15.9997 18.6666C15.9997 19.403 15.4027 20 14.6663 20H10.6663C9.92996 20 9.33301 19.403 9.33301 18.6666Z" fill="#6D4EEA"/>
<path fill-rule="evenodd" clip-rule="evenodd" d="M23.333 18.6666C20.7557 18.6666 18.6663 20.756 18.6663 23.3333C18.6663 25.9106 20.7557 28 23.333 28C24.1367 28 24.8929 27.7968 25.5531 27.439L27.0569 28.9428C27.5776 29.4635 28.4218 29.4635 28.9425 28.9428C29.4632 28.4221 29.4632 27.5779 28.9425 27.0571L27.4388 25.5534C27.7965 24.8932 27.9997 24.137 27.9997 23.3333C27.9997 20.756 25.9103 18.6666 23.333 18.6666ZM21.333 23.3333C21.333 22.2287 22.2284 21.3333 23.333 21.3333C24.4376 21.3333 25.333 22.2287 25.333 23.3333C25.333 24.4379 24.4376 25.3333 23.333 25.3333C22.2284 25.3333 21.333 24.4379 21.333 23.3333Z" fill="#6D4EEA"/>
</svg>
