<svg width="32" height="32" viewBox="0 0 32 32" fill="none" xmlns="http://www.w3.org/2000/svg">
    <path d="M8.59712 10.6259C9.01625 6.85376 12.2047 4 16 4V4C19.7953 4 22.9838 6.85376 23.4029 10.6259L23.7386 13.6475C23.8068 14.2616 23.841 14.5686 23.8978 14.8691C24.0354 15.5959 24.2731 16.3 24.6041 16.9614C24.741 17.2349 24.8999 17.4998 25.2178 18.0297L26.1826 19.6377C26.9884 20.9806 27.3912 21.6521 27.104 22.1594C26.8168 22.6667 26.0337 22.6667 24.4676 22.6667H7.53238C5.96627 22.6667 5.18322 22.6667 4.89599 22.1594C4.60876 21.6521 5.01164 20.9806 5.81739 19.6377L6.78221 18.0297C7.10009 17.4998 7.25904 17.2349 7.39591 16.9614C7.72691 16.3 7.96459 15.5959 8.10216 14.8691C8.15904 14.5686 8.19316 14.2616 8.26139 13.6475L8.59712 10.6259Z" stroke="#828282" stroke-width="2"/>
    <path d="M12.1363 23.5529C12.3642 24.8287 12.8664 25.9561 13.565 26.7601C14.2635 27.5642 15.1195 28 16 28C16.8805 28 17.7365 27.5642 18.435 26.7601C19.1336 25.9561 19.6358 24.8287 19.8637 23.5529" stroke="#828282" stroke-width="2" stroke-linecap="round"/>
</svg>
