<svg width="72" height="72" viewBox="0 0 72 72" fill="none" xmlns="http://www.w3.org/2000/svg">
    <path d="M36 72C55.8822 72 72 55.8823 72 36C72 16.1178 55.8822 0 36 0C16.1177 0 0 16.1178 0 36C0 55.8823 16.1177 72 36 72Z" fill="#9B5711"/>
    <path fill-rule="evenodd" clip-rule="evenodd" d="M64 36C64 51.4639 51.4639 64 36 64C20.5361 64 8 51.4639 8 36C8 20.5361 20.5361 8 36 8C51.4639 8 64 20.5361 64 36ZM56 36C56 47.0459 47.0459 56 36 56C24.9541 56 16 47.0459 16 36C16 24.9541 24.9541 16 36 16C47.0459 16 56 24.9541 56 36Z" fill="#D7832D"/>
    <path d="M35.3759 46.33C33.8759 46.33 32.4359 46.13 31.0559 45.73C29.6759 45.31 28.5759 44.76 27.7559 44.08L29.4359 39.97C31.1759 41.19 33.0859 41.8 35.1659 41.8C37.3259 41.8 38.4059 41.06 38.4059 39.58C38.4059 38.22 37.4459 37.54 35.5259 37.54H31.8359V33.16H34.9859C35.8459 33.16 36.5159 32.98 36.9959 32.62C37.4959 32.26 37.7459 31.74 37.7459 31.06C37.7459 29.72 36.8159 29.05 34.9559 29.05C33.0559 29.05 31.3359 29.66 29.7959 30.88L28.0859 26.86C28.9859 26.12 30.0859 25.55 31.3859 25.15C32.7059 24.73 34.0759 24.52 35.4959 24.52C37.8559 24.52 39.6959 25.04 41.0159 26.08C42.3359 27.1 42.9959 28.52 42.9959 30.34C42.9959 31.42 42.7259 32.37 42.1859 33.19C41.6459 34.01 40.8959 34.61 39.9359 34.99C41.1159 35.33 42.0259 35.95 42.6659 36.85C43.3259 37.75 43.6559 38.84 43.6559 40.12C43.6559 42.04 42.9159 43.56 41.4359 44.68C39.9759 45.78 37.9559 46.33 35.3759 46.33Z" fill="#D7832D"/>
</svg>