<svg width="72" height="72" viewBox="0 0 72 72" fill="none" xmlns="http://www.w3.org/2000/svg">
    <path d="M36 72C55.8822 72 72 55.8823 72 36C72 16.1178 55.8822 0 36 0C16.1177 0 0 16.1178 0 36C0 55.8823 16.1177 72 36 72Z" fill="#FA9D08"/>
    <path fill-rule="evenodd" clip-rule="evenodd" d="M64 36C64 51.4639 51.4639 64 36 64C20.5361 64 8 51.4639 8 36C8 20.5361 20.5361 8 36 8C51.4639 8 64 20.5361 64 36ZM56 36C56 47.0459 47.0459 56 36 56C24.9541 56 16 47.0459 16 36C16 24.9541 24.9541 16 36 16C47.0459 16 56 24.9541 56 36Z" fill="#FFD15C"/>
    <path d="M29.7059 46V41.53H34.4159V30.88L30.8459 32.92L28.8359 28.93L36.0359 24.85H39.9059V41.53H44.3159V46H29.7059Z" fill="#FFD15C"/>
</svg>