<svg width="72" height="72" viewBox="0 0 72 72" fill="none" xmlns="http://www.w3.org/2000/svg">
    <path d="M36 72C55.8822 72 72 55.8823 72 36C72 16.1178 55.8822 0 36 0C16.1177 0 0 16.1178 0 36C0 55.8823 16.1177 72 36 72Z" fill="#A2A2A2"/>
    <path fill-rule="evenodd" clip-rule="evenodd" d="M64 36C64 51.4639 51.4639 64 36 64C20.5361 64 8 51.4639 8 36C8 20.5361 20.5361 8 36 8C51.4639 8 64 20.5361 64 36ZM56 36C56 47.0459 47.0459 56 36 56C24.9541 56 16 47.0459 16 36C16 24.9541 24.9541 16 36 16C47.0459 16 56 24.9541 56 36Z" fill="#EBEBEB"/>
    <path d="M29.0759 46V41.95L35.4359 35.29C36.2159 34.45 36.7659 33.73 37.0859 33.13C37.4259 32.53 37.5959 31.93 37.5959 31.33C37.5959 29.81 36.6259 29.05 34.6859 29.05C33.8859 29.05 33.0659 29.2 32.2259 29.5C31.4059 29.8 30.5859 30.26 29.7659 30.88L28.0559 26.86C28.9759 26.14 30.0859 25.57 31.3859 25.15C32.7059 24.73 34.0659 24.52 35.4659 24.52C37.9059 24.52 39.7659 25.05 41.0459 26.11C42.3459 27.17 42.9959 28.7 42.9959 30.7C42.9959 31.98 42.7059 33.21 42.1259 34.39C41.5459 35.55 40.5759 36.79 39.2159 38.11L35.7959 41.53H43.7759V46H29.0759Z" fill="#EBEBEB"/>
</svg>
