<svg width="24" height="24" viewBox="0 0 24 24" fill="none" xmlns="http://www.w3.org/2000/svg">
    <path fillRule="evenodd" clipRule="evenodd" d="M18.2975 5.68303C17.9186 5.75043 17.3813 5.92674 16.5212 6.21346L10.0302 8.37712C9.20279 8.65292 8.61902 8.84783 8.19912 9.01167C7.99145 9.09269 7.84682 9.15742 7.74624 9.21048C7.66106 9.25542 7.63044 9.28017 7.62861 9.28144C7.22275 9.67434 7.22275 10.3254 7.62861 10.7183C7.63043 10.7196 7.66106 10.7443 7.74624 10.7893C7.84681 10.8423 7.99145 10.907 8.19912 10.9881C8.61902 11.1519 9.20279 11.3468 10.0302 11.6226C10.0492 11.6289 10.068 11.6352 10.0867 11.6414C10.3601 11.7323 10.6001 11.8122 10.821 11.929C11.3535 12.2106 11.7889 12.646 12.0705 13.1785C12.1874 13.3995 12.2672 13.6395 12.3581 13.9129C12.3643 13.9315 12.3706 13.9504 12.3769 13.9694C12.6527 14.7967 12.8476 15.3805 13.0115 15.8004C13.0925 16.0081 13.1572 16.1527 13.2103 16.2533C13.2552 16.3385 13.28 16.3691 13.2812 16.3709C13.6741 16.7768 14.3252 16.7768 14.7181 16.3709C14.7194 16.3691 14.7441 16.3385 14.7891 16.2533C14.8421 16.1527 14.9068 16.0081 14.9879 15.8004C15.1517 15.3805 15.3466 14.7967 15.6224 13.9694L17.7861 7.47837C18.0728 6.6182 18.2491 6.08097 18.3165 5.70207C18.3179 5.69418 18.3192 5.6865 18.3205 5.67904C18.313 5.6803 18.3053 5.68162 18.2975 5.68303ZM18.5564 5.65991C18.5562 5.6601 18.5529 5.65983 18.5472 5.65856C18.5538 5.6591 18.5566 5.65973 18.5564 5.65991ZM18.341 5.45233C18.3397 5.44659 18.3394 5.4433 18.3396 5.4431C18.3398 5.44289 18.3404 5.44576 18.341 5.45233ZM17.9472 3.71394C18.4982 3.61592 19.2527 3.58674 19.8327 4.16679C20.4128 4.74685 20.3836 5.50136 20.2856 6.05235C20.1893 6.59378 19.9628 7.2729 19.7073 8.03919L19.6834 8.11083L17.5198 14.6018L17.5104 14.63C17.2461 15.4229 17.0354 16.0548 16.8511 16.5274C16.6778 16.9716 16.4723 17.4319 16.1628 17.754C14.9823 18.9824 13.017 18.9824 11.8365 17.754C11.5271 17.4319 11.3216 16.9716 11.1483 16.5274C10.9639 16.0548 10.7533 15.4229 10.489 14.6301L10.4796 14.6018C10.3592 14.2406 10.332 14.1693 10.3025 14.1135C10.2086 13.936 10.0635 13.7909 9.88603 13.697C9.83021 13.6675 9.75892 13.6404 9.39772 13.52L9.36939 13.5105C8.57661 13.2463 7.9447 13.0356 7.47215 12.8513C7.02797 12.678 6.5676 12.4725 6.24555 12.163C5.01711 10.9825 5.01711 9.01721 6.24555 7.83674C6.5676 7.52726 7.02797 7.32177 7.47215 7.14846C7.94471 6.96409 8.57665 6.75344 9.36948 6.48917L9.39772 6.47976L15.8887 4.31609C15.9127 4.30811 15.9365 4.30015 15.9603 4.29222C16.7266 4.0367 17.4057 3.81026 17.9472 3.71394Z" fill="#BDBDBD"/>
</svg>
