<svg width="104" height="104" viewBox="0 0 104 104" fill="none" xmlns="http://www.w3.org/2000/svg">
    <g clip-path="url(#clip0_3032_3541)">
        <path d="M41.6821 35.4992L62.4207 0H92.5357L71.7971 35.4992H41.6821Z" fill="#3F46F1"/>
        <path d="M11.4644 0L32.2029 35.4992H62.3179L41.5793 0H11.4644Z" fill="#587DFF"/>
        <path d="M51.9998 104.001C73.1319 104.001 90.2628 86.8697 90.2628 65.7376C90.2628 44.6055 73.1319 27.4746 51.9998 27.4746C30.8677 27.4746 13.7368 44.6055 13.7368 65.7376C13.7368 86.8697 30.8677 104.001 51.9998 104.001Z" fill="#BABABA"/>
        <path fill-rule="evenodd" clip-rule="evenodd" d="M82.2373 65.7378C82.2373 82.4377 68.6994 95.9756 51.9995 95.9756C35.2996 95.9756 21.7617 82.4377 21.7617 65.7378C21.7617 49.0379 35.2996 35.5 51.9995 35.5C68.6994 35.5 82.2373 49.0379 82.2373 65.7378ZM74.8877 65.7378C74.8877 78.3786 64.6403 88.626 51.9995 88.626C39.3587 88.626 29.1113 78.3786 29.1113 65.7378C29.1113 53.097 39.3587 42.8496 51.9995 42.8496C64.6403 42.8496 74.8877 53.097 74.8877 65.7378Z" fill="#EBEBEB"/>
        <path d="M52 49.625L57.241 60.2297L68.9308 61.9289L60.4756 70.1793L62.4615 81.8486L52 76.3415L41.5386 81.8486L43.5245 70.1793L35.0693 61.9289L46.7591 60.2297L52 49.625Z" fill="#EBEBEB"/>
    </g>
    <defs>
        <clipPath id="clip0_3032_3541">
            <path d="M0 8C0 3.58172 3.58172 0 8 0H96C100.418 0 104 3.58172 104 8V96C104 100.418 100.418 104 96 104H8C3.58172 104 0 100.418 0 96V8Z" fill="white"/>
        </clipPath>
    </defs>
</svg>