<svg width="32" height="32" viewBox="0 0 32 32" fill="none" xmlns="http://www.w3.org/2000/svg">
    <path d="M7.66675 8.6665C7.66675 8.11422 8.11446 7.6665 8.66675 7.6665H21.3334C22.9903 7.6665 24.3334 9.00965 24.3334 10.6665V23.3332C24.3334 23.8855 23.8857 24.3332 23.3334 24.3332H8.66675C8.11446 24.3332 7.66675 23.8855 7.66675 23.3332V8.6665Z" stroke="#27AE60" stroke-width="2"/>
    <path d="M12 7.99984V2.6665" stroke="#27AE60" stroke-width="2"/>
    <path d="M12 29.3333V24" stroke="#27AE60" stroke-width="2"/>
    <path d="M20 29.3333V24" stroke="#27AE60" stroke-width="2"/>
    <path d="M29.3333 20L24 20" stroke="#27AE60" stroke-width="2"/>
    <path d="M8.00008 20L2.66675 20" stroke="#27AE60" stroke-width="2"/>
    <path d="M8.00008 12L2.66675 12" stroke="#27AE60" stroke-width="2"/>
    <path d="M20.0001 3.6665C21.0944 3.6665 22.1781 3.88205 23.1891 4.30084C24.2002 4.71963 25.1188 5.33346 25.8926 6.10728C26.6665 6.8811 27.2803 7.79976 27.6991 8.81081C28.1179 9.82186 28.3334 10.9055 28.3334 11.9998" stroke="#27AE60" stroke-width="2"/>
</svg>