<svg width="32" height="32" viewBox="0 0 32 32" fill="none" xmlns="http://www.w3.org/2000/svg">
    <path d="M5.33325 9.3335C5.33325 7.44788 5.33325 6.50507 5.91904 5.91928C6.50482 5.3335 7.44763 5.3335 9.33325 5.3335H11.6764C12.4939 5.3335 12.9026 5.3335 13.2702 5.48574C13.6377 5.63798 13.9268 5.92701 14.5048 6.50507L16.1617 8.16192C16.7397 8.73998 17.0288 9.02901 17.3963 9.18126C17.7639 9.3335 18.1726 9.3335 18.9901 9.3335H22.6666C24.5522 9.3335 25.495 9.3335 26.0808 9.91928C26.6666 10.5051 26.6666 11.4479 26.6666 13.3335V21.3335C26.6666 23.2191 26.6666 24.1619 26.0808 24.7477C25.495 25.3335 24.5522 25.3335 22.6666 25.3335H9.33326C7.44764 25.3335 6.50482 25.3335 5.91904 24.7477C5.33325 24.1619 5.33325 23.2191 5.33325 21.3335V9.3335Z" stroke="#27AE60" stroke-width="2"/>
    <path d="M6.66675 14.6665H25.3334" stroke="#27AE60" stroke-width="2" stroke-miterlimit="1.41421"/>
</svg>