<svg width="32" height="32" viewBox="0 0 32 32" fill="none" xmlns="http://www.w3.org/2000/svg">
    <path d="M4 8C4 6.11438 4 5.17157 4.58579 4.58579C5.17157 4 6.11438 4 8 4H24C25.8856 4 26.8284 4 27.4142 4.58579C28 5.17157 28 6.11438 28 8V24C28 25.8856 28 26.8284 27.4142 27.4142C26.8284 28 25.8856 28 24 28H8C6.11438 28 5.17157 28 4.58579 27.4142C4 26.8284 4 25.8856 4 24V8Z" stroke="#27AE60" stroke-width="2"/>
    <path d="M4 13.3335V13.3335C4 15.2191 4 16.1619 4.58579 16.7477C5.17157 17.3335 6.11438 17.3335 8 17.3335H9.22515C9.92087 17.3335 10.2687 17.3335 10.5306 17.5223C10.7925 17.711 10.9025 18.041 11.1225 18.701L11.5442 19.966C11.7642 20.626 11.8742 20.956 12.136 21.1447C12.3979 21.3335 12.7458 21.3335 13.4415 21.3335H18.5585C19.2542 21.3335 19.6021 21.3335 19.864 21.1447C20.1258 20.956 20.2358 20.626 20.4558 19.966L20.8775 18.701C21.0975 18.041 21.2075 17.711 21.4694 17.5223C21.7313 17.3335 22.0791 17.3335 22.7749 17.3335H24C25.8856 17.3335 26.8284 17.3335 27.4142 16.7477C28 16.1619 28 15.2191 28 13.3335V13.3335" stroke="#27AE60" stroke-width="2"/>
</svg>